# ASF file generated by Tido's ASF writer for MATLAB.
:version 1.10
:name VICON
:units
  mass 1
  length 0.45000000000000001
  angle deg
:documentation
   .ast/.asf automatically generated from VICON data using
   VICON BodyBuilder and BodyLanguage model FoxedUp or BRILLIANT.MOD
:root
  axis xyz
  order tx ty tz rx ry rz 
  position 0 0 0
  orientation 0 0 0
:bonedata
  begin
    id 1
    name lhipjoint
    direction 0.44017800000000001 -0.82263900000000001 0.359871
    length 1.1390085000000001
    axis 0 0 0 xyz
  end
  begin
    id 2
    name lfemur
    direction 0.34201999999999999 -0.939693 0
    length 3.5465939999999998
    axis 0 0 20 xyz
    dof rx ry rz 
    limits (-160 20)
           (-70 70)
           (-60 70)
  end
  begin
    id 3
    name ltibia
    direction 0.34201999999999999 -0.939693 0
    length 3.7970234999999999
    axis 0 0 20 xyz
    dof rx 
    limits (-10 170)
  end
  begin
    id 4
    name lfoot
    direction 0.088635099999999994 -0.24352299999999999 0.96583699999999995
    length 1.1853629999999999
    axis -90 7.62852e-016 20 xyz
    dof rx rz 
    limits (-45 90)
           (-70 20)
  end
  begin
    id 5
    name ltoes
    direction 1.53703e-011 -4.2171700000000001e-011 1
    length 0.59142150000000004
    axis -90 7.62852e-016 20 xyz
    dof rx 
    limits (-90 20)
  end
  begin
    id 6
    name rhipjoint
    direction -0.399779 -0.83977299999999999 0.367367
    length 1.115766
    axis 0 0 0 xyz
  end
  begin
    id 7
    name rfemur
    direction -0.34201999999999999 -0.939693 0
    length 3.4866269999999999
    axis 0 0 -20 xyz
    dof rx ry rz 
    limits (-160 20)
           (-70 70)
           (-70 60)
  end
  begin
    id 8
    name rtibia
    direction -0.34201999999999999 -0.939693 0
    length 3.9349440000000002
    axis 0 0 -20 xyz
    dof rx 
    limits (-10 170)
  end
  begin
    id 9
    name rfoot
    direction -0.108514 -0.29813899999999999 0.94833400000000001
    length 1.1974590000000001
    axis -90 -7.62852e-016 -20 xyz
    dof rx rz 
    limits (-45 90)
           (-20 70)
  end
  begin
    id 10
    name rtoes
    direction -1.5339199999999999e-011 -4.2207699999999999e-011 1
    length 0.59392350000000005
    axis -90 -7.62852e-016 -20 xyz
    dof rx 
    limits (-90 20)
  end
  begin
    id 11
    name lowerback
    direction 0.011325699999999999 0.99986600000000003 0.0118602
    length 1.164123
    axis 0 0 0 xyz
    dof rx ry rz 
    limits (-20 45)
           (-30 30)
           (-30 30)
  end
  begin
    id 12
    name upperback
    direction -0.016474699999999998 0.99519299999999999 -0.096537499999999998
    length 1.135656
    axis 0 0 0 xyz
    dof rx ry rz 
    limits (-20 45)
           (-30 30)
           (-30 30)
  end
  begin
    id 13
    name thorax
    direction -0.019430099999999999 0.99433000000000005 -0.10455200000000001
    length 1.1524455
    axis 0 0 0 xyz
    dof rx ry rz 
    limits (-20 45)
           (-30 30)
           (-30 30)
  end
  begin
    id 14
    name lowerneck
    direction 0.014854300000000001 0.995587 -0.092657000000000003
    length 0.772119
    axis 0 0 0 xyz
    dof rx ry rz 
    limits (-20 45)
           (-30 30)
           (-30 30)
  end
  begin
    id 15
    name upperneck
    direction -0.0135467 0.99365599999999998 -0.111639
    length 0.76021650000000007
    axis 0 0 0 xyz
    dof rx ry rz 
    limits (-20 45)
           (-30 30)
           (-30 30)
  end
  begin
    id 16
    name head
    direction -0.0061534900000000002 0.99954699999999996 -0.029447999999999998
    length 0.78578999999999999
    axis 0 0 0 xyz
    dof rx ry rz 
    limits (-20 45)
           (-30 30)
           (-30 30)
  end
  begin
    id 17
    name lclavicle
    direction 0.98826700000000001 0.14988499999999999 0.029371299999999999
    length 2.012499
    axis 0 0 0 xyz
    dof ry rz 
    limits (-20 10)
           (0 20)
  end
  begin
    id 18
    name lhumerus
    direction 1 -4.4898600000000001e-011 -1.1483300000000001e-027
    length 2.4171659999999999
    axis 180 -30 -90 xyz
    dof rx ry rz 
    limits (-60 90)
           (-90 90)
           (-90 90)
  end
  begin
    id 19
    name lradius
    direction 0.99999800000000005 0.00170963 -0.00098705499999999992
    length 1.773954
    axis 180 -30 -90 xyz
    dof rx 
    limits (-10 170)
  end
  begin
    id 20
    name lwrist
    direction 0.99999800000000005 7.53149e-005 -0.00194706
    length 0.88697700000000002
    axis 4.6505600000000004e-015 90 90 xyz
    dof ry 
    limits (-180 0)
  end
  begin
    id 21
    name lhand
    direction 1 -4.48973e-011 -1.3174599999999999e-026
    length 0.5306265
    axis 8.4064999999999996e-015 90 90 xyz
    dof rx rz 
    limits (-90 90)
           (-45 45)
  end
  begin
    id 22
    name lfingers
    direction 1 -4.49107e-011 -2.6349199999999999e-026
    length 0.42780555000000003
    axis 1.6812999999999999e-014 90 90 xyz
    dof rx 
    limits (0 90)
  end
  begin
    id 23
    name lthumb
    direction 0.70710700000000004 -6.3504800000000005e-011 0.70710700000000004
    length 0.6142455
    axis -90 45 2.8529899999999998e-015 xyz
    dof rx rz 
    limits (-45 45)
           (-45 45)
  end
  begin
    id 24
    name rclavicle
    direction -0.996699 0.064289499999999999 -0.049572499999999999
    length 2.0817494999999999
    axis 0 0 0 xyz
    dof ry rz 
    limits (-10 20)
           (-20 0)
  end
  begin
    id 25
    name rhumerus
    direction -1 -4.4891899999999998e-011 -2.4105900000000001e-027
    length 2.474145
    axis 180 30 90 xyz
    dof rx ry rz 
    limits (-90 60)
           (-90 90)
           (-90 90)
  end
  begin
    id 26
    name rradius
    direction -0.99999899999999997 0.0011810099999999999 -0.00068185800000000003
    length 1.5677145000000001
    axis 180 30 90 xyz
    dof rx 
    limits (-10 170)
  end
  begin
    id 27
    name rwrist
    direction -0.99999899999999997 0.000321823 -0.00132288
    length 0.78385499999999997
    axis 4.6505600000000004e-015 -90 -90 xyz
    dof ry 
    limits (-180 0)
  end
  begin
    id 28
    name rhand
    direction -1 -4.4902199999999998e-011 -1.3174599999999999e-026
    length 0.60719400000000001
    axis 8.4064999999999996e-015 -90 -90 xyz
    dof rx rz 
    limits (-90 90)
           (-45 45)
  end
  begin
    id 29
    name rfingers
    direction -1 -4.4917800000000002e-011 -2.6349199999999999e-026
    length 0.48953249999999998
    axis 1.6812999999999999e-014 -90 -90 xyz
    dof rx 
    limits (0 90)
  end
  begin
    id 30
    name rthumb
    direction -0.70710700000000004 -6.3471300000000002e-011 0.70710700000000004
    length 0.70287750000000004
    axis -90 -45 -2.8529899999999998e-015 xyz
    dof rx rz 
    limits (-45 45)
           (-45 45)
  end
:hierarchy
begin
  root lhipjoint rhipjoint lowerback 
  lhipjoint lfemur 
  lfemur ltibia 
  ltibia lfoot 
  lfoot ltoes 
  rhipjoint rfemur 
  rfemur rtibia 
  rtibia rfoot 
  rfoot rtoes 
  lowerback upperback 
  upperback thorax 
  thorax lowerneck lclavicle rclavicle 
  lowerneck upperneck 
  upperneck head 
  lclavicle lhumerus 
  lhumerus lradius 
  lradius lwrist 
  lwrist lhand lthumb 
  lhand lfingers 
  rclavicle rhumerus 
  rhumerus rradius 
  rradius rwrist 
  rwrist rhand rthumb 
  rhand rfingers 
end

# AMC file generated by Tido's AMC writer for MATLAB on 27-Nov-2005 at 18:24:20
# Corresponding ASF file: S:\data_MoCap\MoCaDaDB\HDM\Bonn_ASF_AMC_Use IK_on\björn\bjorn.asf
# Number of frames: 542
# Sampling rate: 120
:fully-specified
:degrees
187
root -1.5050699999999999 8.5021649999999998 -12.29616 149.065 79.677999999999997 513.26300000000003 
lfemur -15.6358 7.5363300000000004 -17.948499999999999 
ltibia 34.851700000000001 
lfoot -8.2002299999999995 -9.3081999999999994 
ltoes -15.4312 
rfemur -6.2653699999999999 -0.143183 15.1599 
rtibia 67.583799999999997 
rfoot 26.057600000000001 7.4457199999999997 
rtoes -10.6303 
lowerback 0.92455799999999999 0.58405300000000004 -8.8979199999999992 
upperback 11.357200000000001 2.5774300000000001 -5.1536600000000004 
thorax 11.735300000000001 1.0357400000000001 -0.35833799999999999 
lowerneck 0.27415 -9.5428599999999992 -2.1834199999999999 
upperneck 8.4884900000000005 -13.514900000000001 12.1258 
head 3.4704999999999999 -6.3016899999999998 3.5343800000000001 
lclavicle 5.3274299999999999e-014 6.2020800000000005e-014 
lhumerus -21.4466 -2.6052300000000002 80.480400000000003 
lradius 27.657 
lwrist -15.372999999999999 
lhand -19.107900000000001 -4.1955999999999998 
lfingers 7.1250200000000001 
lthumb 7.2010399999999999 25.661899999999999 
rclavicle 5.3274299999999999e-014 6.2020800000000005e-014 
rhumerus -22.993200000000002 -15.757899999999999 -94.512900000000002 
rradius 22.712199999999999 
rwrist 11.643000000000001 
rhand -14.4732 11.4519 
rfingers 7.1250200000000001 
rthumb 11.672800000000001 -18.202999999999999 
188
root -1.4422410000000001 8.5089600000000001 -12.323655 148.05199999999999 79.883700000000005 512.28800000000001 
lfemur -14.884399999999999 7.7035 -18.037299999999998 
ltibia 34.627899999999997 
lfoot -8.6381999999999994 -9.2280499999999996 
ltoes -15.4681 
rfemur -7.6576599999999999 -0.88472399999999995 14.954599999999999 
rtibia 68.627899999999997 
rfoot 24.6478 8.8896200000000007 
rtoes -11.277200000000001 
lowerback 1.0293099999999999 0.44973000000000002 -8.9861599999999999 
upperback 11.3573 2.37514 -5.1056800000000004 
thorax 11.6792 0.92485600000000001 -0.27770299999999998 
lowerneck 0.15667800000000001 -9.4359199999999994 -2.2587999999999999 
upperneck 8.6236099999999993 -13.380100000000001 12.0395 
head 3.51919 -6.23088 3.51858 
lclavicle -2.0673600000000001e-014 9.5416600000000005e-015 
lhumerus -20.9621 -3.5398100000000001 80.5154 
lradius 28.277999999999999 
lwrist -14.8346 
lhand -19.479299999999999 -4.8819900000000001 
lfingers 7.1250200000000001 
lthumb 6.8424500000000004 24.987400000000001 
rclavicle -2.0673600000000001e-014 9.5416600000000005e-015 
rhumerus -23.577500000000001 -17.436199999999999 -93.440100000000001 
rradius 21.533799999999999 
rwrist 12.8123 
rhand -14.512600000000001 11.2943 
rfingers 7.1250200000000001 
rthumb 11.6349 -18.3627 
189
root -1.379745 8.5134600000000002 -12.351329999999999 147.08799999999999 80.094899999999996 511.37700000000001 
lfemur -14.144500000000001 7.8696599999999997 -18.104399999999998 
ltibia 34.451500000000003 
lfoot -9.1178500000000007 -9.1597399999999993 
ltoes -15.5625 
rfemur -8.9788300000000003 -1.6099399999999999 14.796200000000001 
rtibia 69.475399999999993 
rfoot 23.3657 10.617800000000001 
rtoes -10.095700000000001 
lowerback 1.1684600000000001 0.334175 -9.0064499999999992 
upperback 11.3299 2.18675 -5.0735599999999996 
thorax 11.5702 0.82985900000000001 -0.249443 
lowerneck 0.121502 -9.3473600000000001 -2.2610999999999999 
upperneck 8.7474699999999999 -13.265599999999999 11.9526 
head 3.5477400000000001 -6.1705899999999998 3.4952800000000002 
lclavicle 1.35174e-014 1.74931e-014 
lhumerus -20.564 -4.6169900000000004 80.507999999999996 
lradius 28.9938 
lwrist -14.1571 
lhand -19.761099999999999 -5.4469200000000004 
lfingers 7.1250200000000001 
lthumb 6.5704399999999996 24.4312 
rclavicle 1.35174e-014 1.74931e-014 
rhumerus -24.3841 -19.559100000000001 -92.234899999999996 
rradius 20.483699999999999 
rwrist 14.251300000000001 
rhand -14.527699999999999 11.1266 
rfingers 7.1250200000000001 
rthumb 11.620200000000001 -18.531199999999998 
190
root -1.316727 8.5175999999999998 -12.378105000000001 146.19399999999999 80.315100000000001 510.51400000000001 
lfemur -13.4458 8.0420200000000008 -18.140599999999999 
ltibia 34.3172 
lfoot -9.5730500000000003 -9.1500599999999999 
ltoes -15.323499999999999 
rfemur -10.3148 -2.30572 14.7013 
rtibia 70.189999999999998 
rfoot 22.224799999999998 12.5321 
rtoes -7.93079 
lowerback 1.2448900000000001 0.220141 -9.0051400000000008 
upperback 11.331300000000001 2.0145599999999999 -5.0510700000000002 
thorax 11.533799999999999 0.74373199999999995 -0.24152899999999999 
lowerneck 0.027205300000000002 -9.2497000000000007 -2.1661899999999998 
upperneck 8.8353000000000002 -13.1402 11.8911 
head 3.57023 -6.1001000000000003 3.4631799999999999 
lclavicle 1.23246e-014 -1.03368e-013 
lhumerus -20.1084 -5.6184399999999997 80.450000000000003 
lradius 29.829000000000001 
lwrist -13.4215 
lhand -19.918399999999998 -5.7909100000000002 
lfingers 7.1250200000000001 
lthumb 6.4185699999999999 24.091799999999999 
rclavicle 1.23246e-014 -1.03368e-013 
rhumerus -25.2727 -21.046399999999998 -91.001000000000005 
rradius 19.664300000000001 
rwrist 15.1347 
rhand -14.526 10.933400000000001 
rfingers 7.1250200000000001 
rthumb 11.6219 -18.724299999999999 
191
root -1.2533355000000002 8.5208399999999997 -12.40461 145.34 80.501400000000004 509.71100000000001 
lfemur -12.7399 8.1999899999999997 -18.185400000000001 
ltibia 34.190399999999997 
lfoot -10.087899999999999 -9.10928 
ltoes -15.585100000000001 
rfemur -11.595599999999999 -3.0012599999999998 14.6271 
rtibia 70.777199999999993 
rfoot 21.248100000000001 14.439299999999999 
rtoes -4.9901900000000001 
lowerback 1.34585 0.099441299999999996 -9.0322399999999998 
upperback 11.3248 1.8263400000000001 -4.9999599999999997 
thorax 11.473000000000001 0.64532 -0.18806600000000001 
lowerneck -0.052727799999999998 -9.16568 -2.0333299999999999 
upperneck 8.9529399999999999 -13.0298 11.7555 
head 3.59341 -6.0377299999999998 3.4026999999999998 
lclavicle -3.18055e-015 4.1347200000000001e-014 
lhumerus -19.672899999999998 -6.4738499999999997 80.427000000000007 
lradius 30.7287 
lwrist -12.718299999999999 
lhand -20.124500000000001 -5.8942399999999999 
lfingers 7.1250200000000001 
lthumb 6.2196499999999997 23.994499999999999 
rclavicle -3.18055e-015 4.1347200000000001e-014 
rhumerus -25.945799999999998 -23.8691 -89.423100000000005 
rradius 18.3658 
rwrist 17.408000000000001 
rhand -14.6159 10.859999999999999 
rfingers 7.1250200000000001 
rthumb 11.5352 -18.802600000000002 
192
root -1.189602 8.5224600000000006 -12.429945 144.71199999999999 80.641800000000003 509.089 
lfemur -12.0852 8.3285699999999991 -18.221699999999998 
ltibia 34.062399999999997 
lfoot -10.5427 -9.1019900000000007 
ltoes -15.347 
rfemur -12.8986 -3.7284999999999999 14.5929 
rtibia 71.246399999999994 
rfoot 20.400300000000001 16.261800000000001 
rtoes -2.2975400000000001 
lowerback 1.3722300000000001 -0.040902000000000001 -9.0942500000000006 
upperback 11.3424 1.62446 -4.9245700000000001 
thorax 11.4876 0.53274100000000002 -0.090365100000000004 
lowerneck -0.23755699999999999 -9.09389 -1.85389 
upperneck 9.0880299999999998 -12.939 11.578799999999999 
head 3.6355499999999998 -5.9811300000000003 3.3161800000000001 
lclavicle 1.8288199999999999e-014 -3.8166699999999998e-014 
lhumerus -19.154699999999998 -7.3768000000000002 80.364000000000004 
lradius 31.680700000000002 
lwrist -11.8881 
lhand -20.433599999999998 -5.8685999999999998 
lfingers 7.1250200000000001 
lthumb 5.9211900000000002 24.028700000000001 
rclavicle 1.8288199999999999e-014 -3.8166699999999998e-014 
rhumerus -27.143799999999999 -25.0641 -87.947000000000003 
rradius 17.861000000000001 
rwrist 18.165600000000001 
rhand -14.709 10.7197 
rfingers 7.1250200000000001 
rthumb 11.445399999999999 -18.947900000000001 
193
root -1.1245770000000002 8.5245750000000005 -12.454874999999999 144.19200000000001 80.779899999999998 508.577 
lfemur -11.4337 8.4721399999999996 -18.2364 
ltibia 33.938600000000001 
lfoot -11.014200000000001 -9.1227999999999998 
ltoes -15.1762 
rfemur -14.176500000000001 -4.4218000000000002 14.6182 
rtibia 71.603700000000003 
rfoot 19.425999999999998 17.968399999999999 
rtoes -0.57022499999999998 
lowerback 1.37436 -0.17974499999999999 -9.1274599999999992 
upperback 11.356199999999999 1.4257200000000001 -4.8522100000000004 
thorax 11.5129 0.42412899999999998 -0.0113554 
lowerneck -0.385575 -9.0224600000000006 -1.66107 
upperneck 9.1818399999999993 -12.848100000000001 11.4497 
head 3.6617799999999998 -5.9250499999999997 3.2445400000000002 
lclavicle -2.38542e-015 1.5902800000000001e-015 
lhumerus -18.6343 -8.3057700000000008 80.261499999999998 
lradius 32.717700000000001 
lwrist -10.9422 
lhand -20.7437 -5.8008600000000001 
lfingers 7.1250200000000001 
lthumb 5.6218199999999996 24.104600000000001 
rclavicle -2.38542e-015 1.5902800000000001e-015 
rhumerus -28.134799999999998 -27.794499999999999 -86.048100000000005 
rradius 16.843800000000002 
rwrist 20.501799999999999 
rhand -14.9034 10.755599999999999 
rfingers 7.1250200000000001 
rthumb 11.257899999999999 -18.9223 
194
root -1.0591065 8.5268250000000005 -12.478814999999999 144.28399999999999 80.957999999999998 508.68400000000003 
lfemur -10.7875 8.5854599999999994 -18.123999999999999 
ltibia 33.842599999999997 
lfoot -11.488899999999999 -9.1570499999999999 
ltoes -14.9435 
rfemur -15.435 -5.1341599999999996 14.8012 
rtibia 71.822999999999993 
rfoot 18.269300000000001 19.443000000000001 
rtoes 0.48263499999999998 
lowerback 1.3467800000000001 -0.327878 -9.0863099999999992 
upperback 11.389900000000001 1.21017 -4.7318699999999998 
thorax 11.5786 0.30899300000000002 0.076879299999999998 
lowerneck -0.49282399999999998 -8.9443000000000001 -1.4360900000000001 
upperneck 9.2032000000000007 -12.738300000000001 11.2819 
head 3.6539999999999999 -5.8655799999999996 3.1609099999999999 
lclavicle 4.7708300000000003e-015 -3.1805500000000001e-014 
lhumerus -18.099399999999999 -8.9880200000000006 80.168599999999998 
lradius 33.814599999999999 
lwrist -10.1495 
lhand -21.001100000000001 -5.6191300000000002 
lfingers 7.1250200000000001 
lthumb 5.3732600000000001 24.2927 
rclavicle 4.7708300000000003e-015 -3.1805500000000001e-014 
rhumerus -29.1374 -30.4221 -83.961100000000002 
rradius 15.7964 
rwrist 22.991599999999998 
rhand -14.922800000000001 10.927899999999999 
rfingers 7.1250200000000001 
rthumb 11.2393 -18.751000000000001 
195
root -0.99350550000000004 8.5276350000000001 -12.502485 144.31299999999999 81.114699999999999 508.72399999999999 
lfemur -10.167999999999999 8.7388100000000009 -18.034500000000001 
ltibia 33.773400000000002 
lfoot -11.984 -9.2068899999999996 
ltoes -14.8279 
rfemur -16.6633 -5.8614699999999997 15.0062 
rtibia 71.875699999999995 
rfoot 16.917000000000002 20.555599999999998 
rtoes 0.73049500000000001 
lowerback 1.3249 -0.47170600000000001 -9.0285100000000007 
upperback 11.411 1.0000500000000001 -4.6354800000000003 
thorax 11.6266 0.20068800000000001 0.13050500000000001 
lowerneck -0.55673499999999998 -8.8671699999999998 -1.25746 
upperneck 9.2107700000000001 -12.633100000000001 11.196099999999999 
head 3.6435900000000001 -5.8082799999999999 3.1107800000000001 
lclavicle -3.9756899999999997e-015 1.74931e-014 
lhumerus -17.627500000000001 -9.6496899999999997 80.027600000000007 
lradius 35.000999999999998 
lwrist -9.3735999999999997 
lhand -21.276599999999998 -5.5340299999999996 
lfingers 7.1250200000000001 
lthumb 5.1073199999999996 24.384399999999999 
rclavicle -3.9756899999999997e-015 1.74931e-014 
rhumerus -30.532900000000001 -32.418999999999997 -81.874200000000002 
rradius 15.1869 
rwrist 24.829000000000001 
rhand -14.6639 11.1226 
rfingers 7.1250200000000001 
rthumb 11.488899999999999 -18.5426 
